<svg width="300" height="300" viewBox="0 0 300 300" fill="none" xmlns="http://www.w3.org/2000/svg">
<path d="M37.5 52.5H262.5C283.211 52.5 300 69.2893 300 90V210C300 230.711 283.211 247.5 262.5 247.5H37.5C16.7893 247.5 0 230.711 0 210V90C0 69.2893 16.7893 52.5 37.5 52.5ZM37.5 67.5C25.0736 67.5 15 77.5736 15 90V210C15 222.426 25.0736 232.5 37.5 232.5H262.5C274.926 232.5 285 222.426 285 210V90C285 77.5736 274.926 67.5 262.5 67.5H37.5ZM52.5 112.5C48.3579 112.5 45 109.142 45 105C45 100.858 48.3579 97.5 52.5 97.5H67.5C71.6421 97.5 75 100.858 75 105C75 109.142 71.6421 112.5 67.5 112.5H52.5ZM97.5 112.5C93.3579 112.5 90 109.142 90 105C90 100.858 93.3579 97.5 97.5 97.5H112.5C116.642 97.5 120 100.858 120 105C120 109.142 116.642 112.5 112.5 112.5H97.5ZM142.5 112.5C138.358 112.5 135 109.142 135 105C135 100.858 138.358 97.5 142.5 97.5H157.5C161.642 97.5 165 100.858 165 105C165 109.142 161.642 112.5 157.5 112.5H142.5ZM187.5 112.5C183.358 112.5 180 109.142 180 105C180 100.858 183.358 97.5 187.5 97.5H202.5C206.642 97.5 210 100.858 210 105C210 109.142 206.642 112.5 202.5 112.5H187.5ZM232.5 112.5C228.358 112.5 225 109.142 225 105C225 100.858 228.358 97.5 232.5 97.5H247.5C251.642 97.5 255 100.858 255 105C255 109.142 251.642 112.5 247.5 112.5H232.5ZM52.5 157.5C48.3579 157.5 45 154.142 45 150C45 145.858 48.3579 142.5 52.5 142.5H67.5C71.6421 142.5 75 145.858 75 150C75 154.142 71.6421 157.5 67.5 157.5H52.5ZM97.5 157.5C93.3579 157.5 90 154.142 90 150C90 145.858 93.3579 142.5 97.5 142.5H112.5C116.642 142.5 120 145.858 120 150C120 154.142 116.642 157.5 112.5 157.5H97.5ZM142.5 157.5C138.358 157.5 135 154.142 135 150C135 145.858 138.358 142.5 142.5 142.5H157.5C161.642 142.5 165 145.858 165 150C165 154.142 161.642 157.5 157.5 157.5H142.5ZM187.5 157.5C183.358 157.5 180 154.142 180 150C180 145.858 183.358 142.5 187.5 142.5H202.5C206.642 142.5 210 145.858 210 150C210 154.142 206.642 157.5 202.5 157.5H187.5ZM232.5 157.5C228.358 157.5 225 154.142 225 150C225 145.858 228.358 142.5 232.5 142.5H247.5C251.642 142.5 255 145.858 255 150C255 154.142 251.642 157.5 247.5 157.5H232.5ZM52.5 202.5C48.3579 202.5 45 199.142 45 195C45 190.858 48.3579 187.5 52.5 187.5H67.5C71.6421 187.5 75 190.858 75 195C75 199.142 71.6421 202.5 67.5 202.5H52.5ZM97.5 202.5C93.3579 202.5 90 199.142 90 195C90 190.858 93.3579 187.5 97.5 187.5H202.5C206.642 187.5 210 190.858 210 195C210 199.142 206.642 202.5 202.5 202.5H97.5ZM232.5 202.5C228.358 202.5 225 199.142 225 195C225 190.858 228.358 187.5 232.5 187.5H247.5C251.642 187.5 255 190.858 255 195C255 199.142 251.642 202.5 247.5 202.5H232.5Z" fill="black"/>
</svg>
