<svg width="300" height="300" viewBox="0 0 300 300" fill="none" xmlns="http://www.w3.org/2000/svg">
<g clip-path="url(#clip0_144_149)">
<path d="M27.7723 223.726L17.3754 244.52C15.8133 247.644 15 251.089 15 254.582V270C15 278.284 21.7157 285 30 285H45C53.2843 285 60 278.284 60 270V254.582C60 251.089 59.1867 247.644 57.6246 244.52L47.2277 223.726C44.1254 224.557 40.8644 225 37.5 225C34.1356 225 30.8746 224.557 27.7723 223.726ZM14.3594 217.011C5.61635 210.145 0 199.479 0 187.5C0 166.789 16.7893 150 37.5 150C58.2107 150 75 166.789 75 187.5C75 199.479 69.3837 210.145 60.6406 217.011L71.041 237.812C73.6446 243.019 75 248.76 75 254.582V270C75 286.569 61.5685 300 45 300H30C13.4315 300 0 286.569 0 270V254.582C0 248.76 1.35544 243.019 3.95898 237.812L14.3594 217.011ZM252.772 223.726L242.375 244.52C240.813 247.644 240 251.089 240 254.582V270C240 278.284 246.716 285 255 285H270C278.284 285 285 278.284 285 270V254.582C285 251.089 284.187 247.644 282.625 244.52L272.228 223.726C269.125 224.557 265.864 225 262.5 225C259.136 225 255.875 224.557 252.772 223.726ZM239.359 217.011C230.616 210.145 225 199.479 225 187.5C225 166.789 241.789 150 262.5 150C283.211 150 300 166.789 300 187.5C300 199.479 294.384 210.145 285.641 217.011L296.041 237.812C298.645 243.019 300 248.76 300 254.582V270C300 286.569 286.569 300 270 300H255C238.431 300 225 286.569 225 270V254.582C225 248.76 226.355 243.019 228.959 237.812L239.359 217.011ZM133.57 221.906C133.342 222.22 133.086 222.52 132.803 222.803L111.59 244.017C107.371 248.236 105 253.959 105 259.926V270C105 278.284 111.716 285 120 285H180C188.284 285 195 278.284 195 270V259.926C195 253.959 192.629 248.236 188.41 244.017L167.197 222.803C166.914 222.52 166.658 222.22 166.43 221.906C161.34 223.903 155.798 225 150 225C144.202 225 138.66 223.903 133.57 221.906ZM120.452 213.941C110.984 205.691 105 193.544 105 180C105 155.147 125.147 135 150 135C174.853 135 195 155.147 195 180C195 193.544 189.016 205.691 179.548 213.941L199.017 233.41C206.049 240.443 210 249.981 210 259.926V270C210 286.569 196.569 300 180 300H120C103.431 300 90 286.569 90 270V259.926C90 249.981 93.9509 240.443 100.983 233.41L120.452 213.941ZM150 210C166.569 210 180 196.569 180 180C180 163.431 166.569 150 150 150C133.431 150 120 163.431 120 180C120 196.569 133.431 210 150 210ZM262.5 210C274.926 210 285 199.926 285 187.5C285 175.074 274.926 165 262.5 165C250.074 165 240 175.074 240 187.5C240 199.926 250.074 210 262.5 210ZM37.5 210C49.9264 210 60 199.926 60 187.5C60 175.074 49.9264 165 37.5 165C25.0736 165 15 175.074 15 187.5C15 199.926 25.0736 210 37.5 210ZM155.303 117.803C152.374 120.732 147.626 120.732 144.697 117.803L131.893 105H112.5C91.7893 105 75 88.2107 75 67.5V37.5C75 16.7893 91.7893 0 112.5 0H187.5C208.211 0 225 16.7893 225 37.5V67.5C225 88.2107 208.211 105 187.5 105H168.107L155.303 117.803ZM150 101.893L159.697 92.1967C161.103 90.7902 163.011 90 165 90H187.5C199.926 90 210 79.9264 210 67.5V37.5C210 25.0736 199.926 15 187.5 15H112.5C100.074 15 90 25.0736 90 37.5V67.5C90 79.9264 100.074 90 112.5 90H135C136.989 90 138.897 90.7902 140.303 92.1967L150 101.893Z" fill="black"/>
</g>
<defs>
<clipPath id="clip0_144_149">
<rect width="300" height="300" fill="white"/>
</clipPath>
</defs>
</svg>
