<svg width="300" height="300" viewBox="0 0 300 300" fill="none" xmlns="http://www.w3.org/2000/svg">
<g clip-path="url(#clip0_144_127)">
<path d="M45 105V150H105V105H45ZM15 60H225V37.5C225 25.0736 214.926 15 202.5 15H37.5C25.0736 15 15 25.0736 15 37.5V60ZM172.497 75H15V217.5C15 229.926 25.0736 240 37.5 240H165V225H142.5C138.358 225 135 221.642 135 217.5C135 213.358 138.358 210 142.5 210H165V195H142.5C138.358 195 135 191.642 135 187.5C135 183.358 138.358 180 142.5 180H165V165H142.5C138.358 165 135 161.642 135 157.5V97.5C135 93.3579 138.358 90 142.5 90H165.75C166.875 84.4584 169.222 79.3606 172.497 75ZM240 60H262.5C283.211 60 300 76.7893 300 97.5V262.5C300 283.211 283.211 300 262.5 300H202.5C181.789 300 165 283.211 165 262.5V255H37.5C16.7893 255 0 238.211 0 217.5V37.5C0 16.7893 16.7893 0 37.5 0H202.5C223.211 0 240 16.7893 240 37.5V60ZM165 150V105H150V150H165ZM37.5 90H112.5C116.642 90 120 93.3579 120 97.5V157.5C120 161.642 116.642 165 112.5 165H37.5C33.3579 165 30 161.642 30 157.5V97.5C30 93.3579 33.3579 90 37.5 90ZM180 97.5V262.5C180 274.926 190.074 285 202.5 285H262.5C274.926 285 285 274.926 285 262.5V97.5C285 85.0736 274.926 75 262.5 75H202.5C190.074 75 180 85.0736 180 97.5ZM37.5 195C33.3579 195 30 191.642 30 187.5C30 183.358 33.3579 180 37.5 180H112.5C116.642 180 120 183.358 120 187.5C120 191.642 116.642 195 112.5 195H37.5ZM37.5 225C33.3579 225 30 221.642 30 217.5C30 213.358 33.3579 210 37.5 210H82.5C86.6421 210 90 213.358 90 217.5C90 221.642 86.6421 225 82.5 225H37.5ZM202.5 105H262.5C266.642 105 270 108.358 270 112.5V142.5C270 146.642 266.642 150 262.5 150H202.5C198.358 150 195 146.642 195 142.5V112.5C195 108.358 198.358 105 202.5 105ZM210 120V135H255V120H210ZM202.5 180C198.358 180 195 176.642 195 172.5C195 168.358 198.358 165 202.5 165H262.5C266.642 165 270 168.358 270 172.5C270 176.642 266.642 180 262.5 180H202.5ZM202.5 210C198.358 210 195 206.642 195 202.5C195 198.358 198.358 195 202.5 195H247.5C251.642 195 255 198.358 255 202.5C255 206.642 251.642 210 247.5 210H202.5ZM30 30H45V45H30V30ZM60 30H75V45H60V30ZM90 30H105V45H90V30ZM217.5 270C213.358 270 210 266.642 210 262.5C210 258.358 213.358 255 217.5 255H247.5C251.642 255 255 258.358 255 262.5C255 266.642 251.642 270 247.5 270H217.5Z" fill="black"/>
</g>
<defs>
<clipPath id="clip0_144_127">
<rect width="300" height="300" fill="white"/>
</clipPath>
</defs>
</svg>
