<svg width="300" height="300" viewBox="0 0 300 300" fill="none" xmlns="http://www.w3.org/2000/svg">
<path d="M218.182 68.4V208.198L238.636 228.748L259.091 208.198V68.4H218.182ZM218.182 54.8H259.091V27.8002H218.182V54.8ZM272.727 82V211C272.727 212.795 272.016 214.517 270.748 215.79L243.475 243.191C240.809 245.87 236.464 245.87 233.798 243.191L206.525 215.79C205.257 214.517 204.545 212.795 204.545 211V177.2H197.727C186.431 177.2 177.273 168.067 177.273 156.8V116C177.273 104.733 186.431 95.6 197.727 95.6H204.545V82H68.1818V184C68.1818 187.756 65.1292 190.8 61.3636 190.8H54.5455C31.952 190.8 13.6364 209.067 13.6364 231.6C13.6364 254.133 31.952 272.4 54.5455 272.4H286.364V82H272.727ZM272.727 68.4H293.182C296.947 68.4 300 71.4445 300 75.2V279.2C300 282.956 296.947 286 293.182 286H54.5455C24.4208 286 0 261.644 0 231.6V75.2C0 41.4002 27.4734 14 61.3636 14C65.1292 14 68.1818 17.0445 68.1818 20.8V68.4H204.545V21.0002C204.545 17.2446 207.598 14.2002 211.364 14.2002H265.909C269.675 14.2002 272.727 17.2446 272.727 21.0002V68.4ZM204.545 109.2H197.727C193.962 109.2 190.909 112.244 190.909 116V156.8C190.909 160.556 193.962 163.6 197.727 163.6H204.545V109.2ZM13.6364 195.617C23.6311 184.323 38.2542 177.2 54.5455 177.2V28.082C31.4162 31.3816 13.6364 51.22 13.6364 75.2V195.617ZM102.273 95.6H143.182C154.479 95.6 163.636 104.733 163.636 116V156.8C163.636 168.067 154.479 177.2 143.182 177.2H102.273C90.976 177.2 81.8182 168.067 81.8182 156.8V116C81.8182 104.733 90.976 95.6 102.273 95.6ZM102.273 109.2C98.5072 109.2 95.4545 112.244 95.4545 116V156.8C95.4545 160.556 98.5072 163.6 102.273 163.6H143.182C146.947 163.6 150 160.556 150 156.8V116C150 112.244 146.947 109.2 143.182 109.2H102.273ZM88.6364 218C84.8708 218 81.8182 214.956 81.8182 211.2C81.8182 207.444 84.8708 204.4 88.6364 204.4H184.091C187.856 204.4 190.909 207.444 190.909 211.2C190.909 214.956 187.856 218 184.091 218H88.6364ZM88.6364 245.2C84.8708 245.2 81.8182 242.156 81.8182 238.4C81.8182 234.644 84.8708 231.6 88.6364 231.6H197.727C201.493 231.6 204.545 234.644 204.545 238.4C204.545 242.156 201.493 245.2 197.727 245.2H88.6364Z" fill="black"/>
</svg>
